<?xml version="1.0" encoding="UTF-8"?>
<svg xmlns="http://www.w3.org/2000/svg" xmlns:xlink="http://www.w3.org/1999/xlink" width="500px" height="72px" viewBox="0 0 497 72" version="1.1">
<g id="surface1">
<path style=" stroke:none;fill-rule:nonzero;fill:rgb(80.784315%,61.56863%,45.490196%);fill-opacity:1;" d="M 70.078125 1.425781 C 74.8125 1.425781 79.550781 1.425781 84.433594 1.425781 C 85.308594 4.054688 85.308594 4.054688 85.667969 5.207031 C 85.8125 5.679688 85.960938 6.152344 86.109375 6.625 C 86.171875 6.839844 86.238281 7.050781 86.304688 7.261719 C 86.707031 8.550781 87.109375 9.839844 87.515625 11.128906 C 87.578125 11.332031 87.640625 11.535156 87.703125 11.734375 C 88.183594 13.265625 88.664062 14.792969 89.144531 16.320312 C 89.164062 16.390625 89.1875 16.460938 89.210938 16.53125 C 89.382812 17.089844 89.558594 17.644531 89.734375 18.203125 C 90.398438 20.308594 91.054688 22.414062 91.710938 24.515625 C 92.371094 26.632812 93.039062 28.75 93.703125 30.863281 C 94.390625 33.039062 95.074219 35.21875 95.753906 37.398438 C 96.414062 39.511719 97.074219 41.621094 97.738281 43.734375 C 97.914062 44.292969 98.09375 44.855469 98.269531 45.414062 C 98.300781 45.519531 98.300781 45.519531 98.335938 45.625 C 98.863281 47.300781 99.386719 48.980469 99.914062 50.65625 C 100.390625 52.1875 100.871094 53.71875 101.351562 55.246094 C 101.398438 55.398438 101.445312 55.546875 101.492188 55.699219 C 101.699219 56.347656 101.902344 57 102.105469 57.648438 C 102.191406 57.914062 102.273438 58.179688 102.359375 58.445312 C 102.398438 58.570312 102.4375 58.699219 102.476562 58.828125 C 102.691406 59.5 102.898438 60.175781 103.105469 60.847656 C 103.160156 61.023438 103.160156 61.023438 103.214844 61.199219 C 103.28125 61.417969 103.34375 61.636719 103.410156 61.851562 C 103.441406 61.949219 103.46875 62.042969 103.5 62.140625 C 103.523438 62.226562 103.550781 62.308594 103.574219 62.394531 C 103.625 62.582031 103.625 62.582031 103.734375 62.679688 C 103.765625 62.585938 103.765625 62.585938 103.792969 62.492188 C 104.753906 59.421875 105.710938 56.351562 106.675781 53.28125 C 106.710938 53.175781 106.710938 53.175781 106.742188 53.070312 C 106.789062 52.933594 106.832031 52.792969 106.875 52.652344 C 106.984375 52.300781 107.097656 51.949219 107.207031 51.597656 C 107.226562 51.53125 107.25 51.460938 107.273438 51.390625 C 107.757812 49.84375 108.242188 48.296875 108.726562 46.746094 C 109.234375 45.128906 109.742188 43.511719 110.25 41.894531 C 110.28125 41.792969 110.28125 41.792969 110.316406 41.6875 C 110.492188 41.125 110.667969 40.566406 110.84375 40.003906 C 111.503906 37.902344 112.164062 35.796875 112.820312 33.691406 C 113.503906 31.5 114.191406 29.3125 114.882812 27.125 C 115.546875 25.019531 116.207031 22.917969 116.863281 20.8125 C 117.523438 18.699219 118.183594 16.585938 118.847656 14.476562 C 119.023438 13.917969 119.199219 13.363281 119.371094 12.808594 C 119.394531 12.738281 119.414062 12.667969 119.4375 12.597656 C 120.003906 10.792969 120.570312 8.988281 121.136719 7.183594 C 121.738281 5.265625 122.339844 3.34375 122.941406 1.425781 C 128.058594 1.425781 133.171875 1.425781 138.441406 1.425781 C 138.378906 1.835938 138.316406 2.242188 138.25 2.664062 C 138.023438 4.167969 137.835938 5.667969 137.710938 7.1875 C 137.703125 7.257812 137.699219 7.324219 137.691406 7.394531 C 137.542969 9.226562 137.476562 11.050781 137.476562 12.886719 C 137.476562 13.09375 137.476562 13.304688 137.476562 13.511719 C 137.476562 14.082031 137.476562 14.652344 137.476562 15.222656 C 137.476562 15.839844 137.476562 16.453125 137.476562 17.070312 C 137.476562 18.277344 137.472656 19.480469 137.472656 20.6875 C 137.472656 21.667969 137.472656 22.648438 137.472656 23.628906 C 137.472656 23.914062 137.472656 24.199219 137.472656 24.480469 C 137.472656 24.550781 137.472656 24.621094 137.472656 24.695312 C 137.472656 26.675781 137.472656 28.65625 137.472656 30.636719 C 137.472656 30.710938 137.472656 30.785156 137.472656 30.859375 C 137.472656 31.238281 137.472656 31.617188 137.472656 31.992188 C 137.472656 32.105469 137.472656 32.105469 137.472656 32.222656 C 137.472656 32.371094 137.472656 32.523438 137.472656 32.675781 C 137.472656 35.03125 137.472656 37.390625 137.472656 39.746094 C 137.46875 42.398438 137.46875 45.054688 137.46875 47.707031 C 137.46875 47.992188 137.46875 48.273438 137.46875 48.558594 C 137.46875 48.628906 137.46875 48.699219 137.46875 48.769531 C 137.46875 49.886719 137.46875 51.003906 137.46875 52.121094 C 137.464844 53.246094 137.464844 54.375 137.46875 55.5 C 137.46875 56.109375 137.46875 56.714844 137.464844 57.324219 C 137.460938 60.417969 137.484375 63.507812 137.835938 66.585938 C 137.859375 66.785156 137.878906 66.984375 137.902344 67.183594 C 138.039062 68.417969 138.246094 69.628906 138.441406 70.859375 C 134.394531 70.859375 130.347656 70.859375 126.175781 70.859375 C 126.410156 69.351562 126.410156 69.351562 126.652344 67.816406 C 126.757812 66.894531 126.859375 65.980469 126.9375 65.058594 C 126.945312 64.949219 126.953125 64.84375 126.964844 64.734375 C 127.164062 62.230469 127.152344 59.722656 127.148438 57.210938 C 127.148438 56.644531 127.148438 56.082031 127.148438 55.519531 C 127.152344 54.367188 127.148438 53.21875 127.148438 52.070312 C 127.148438 50.933594 127.148438 49.796875 127.148438 48.660156 C 127.148438 48.585938 127.148438 48.515625 127.148438 48.445312 C 127.148438 48.15625 127.148438 47.867188 127.148438 47.578125 C 127.148438 44.882812 127.148438 42.183594 127.144531 39.488281 C 127.144531 37.09375 127.144531 34.699219 127.144531 32.304688 C 127.144531 32.148438 127.144531 31.996094 127.144531 31.839844 C 127.144531 31.765625 127.144531 31.6875 127.144531 31.609375 C 127.144531 31.226562 127.144531 30.839844 127.144531 30.457031 C 127.144531 30.34375 127.144531 30.34375 127.144531 30.230469 C 127.144531 28.222656 127.144531 26.21875 127.144531 24.214844 C 127.144531 24.105469 127.144531 24.105469 127.144531 23.996094 C 127.144531 23.710938 127.144531 23.425781 127.144531 23.136719 C 127.140625 22.140625 127.140625 21.144531 127.140625 20.148438 C 127.140625 18.867188 127.140625 17.582031 127.140625 16.300781 C 127.140625 15.683594 127.140625 15.066406 127.140625 14.445312 C 127.140625 13.882812 127.140625 13.316406 127.140625 12.75 C 127.140625 12.546875 127.140625 12.339844 127.140625 12.136719 C 127.140625 11.859375 127.140625 11.582031 127.136719 11.304688 C 127.140625 11.222656 127.140625 11.144531 127.140625 11.058594 C 127.136719 10.71875 127.125 10.410156 127.03125 10.082031 C 126.734375 11 126.4375 11.917969 126.140625 12.835938 C 126.117188 12.902344 126.09375 12.972656 126.070312 13.046875 C 125.433594 15.019531 124.800781 16.996094 124.179688 18.976562 C 123.550781 20.976562 122.90625 22.976562 122.261719 24.972656 C 121.65625 26.839844 121.058594 28.707031 120.46875 30.578125 C 119.863281 32.515625 119.242188 34.449219 118.617188 36.378906 C 117.953125 38.429688 117.296875 40.480469 116.652344 42.53125 C 116.074219 44.367188 115.488281 46.199219 114.894531 48.027344 C 114.308594 49.84375 113.726562 51.664062 113.15625 53.484375 C 112.523438 55.492188 111.878906 57.496094 111.230469 59.5 C 110.535156 61.644531 109.851562 63.792969 109.175781 65.941406 C 108.667969 67.550781 108.152344 69.15625 107.632812 70.761719 C 104.027344 70.761719 100.417969 70.761719 96.699219 70.761719 C 96.378906 69.90625 96.378906 69.90625 96.28125 69.613281 C 96.257812 69.546875 96.234375 69.480469 96.214844 69.410156 C 96.191406 69.339844 96.167969 69.269531 96.140625 69.199219 C 96.105469 69.082031 96.105469 69.082031 96.066406 68.96875 C 95.980469 68.714844 95.898438 68.464844 95.8125 68.214844 C 95.785156 68.125 95.753906 68.039062 95.726562 67.949219 C 95.148438 66.214844 94.582031 64.476562 94.019531 62.738281 C 93.695312 61.746094 93.371094 60.753906 93.046875 59.761719 C 92.492188 58.0625 91.9375 56.363281 91.382812 54.660156 C 90.9375 53.292969 90.492188 51.921875 90.042969 50.550781 C 89.539062 49.011719 89.039062 47.46875 88.535156 45.925781 C 88.089844 44.550781 87.640625 43.175781 87.191406 41.800781 C 86.714844 40.34375 86.238281 38.886719 85.765625 37.425781 C 85.292969 35.980469 84.824219 34.535156 84.351562 33.085938 C 84.320312 32.992188 84.289062 32.894531 84.253906 32.792969 C 84.027344 32.101562 83.804688 31.410156 83.578125 30.722656 C 83.320312 29.933594 83.0625 29.144531 82.804688 28.355469 C 82.773438 28.257812 82.742188 28.160156 82.710938 28.0625 C 82.242188 26.628906 81.777344 25.199219 81.308594 23.765625 C 80.863281 22.390625 80.414062 21.015625 79.964844 19.640625 C 78.046875 13.769531 78.046875 13.769531 77.109375 10.855469 C 77.058594 10.691406 77.058594 10.691406 77.003906 10.523438 C 76.976562 10.441406 76.949219 10.359375 76.921875 10.273438 C 76.917969 12.097656 76.917969 13.925781 76.941406 15.753906 C 76.945312 15.832031 76.945312 15.910156 76.945312 15.992188 C 76.949219 16.320312 76.953125 16.648438 76.957031 16.976562 C 77.003906 20.4375 77.027344 23.898438 77.03125 27.355469 C 77.03125 27.460938 77.03125 27.566406 77.03125 27.675781 C 77.035156 28.886719 77.035156 30.09375 77.035156 31.300781 C 77.039062 32.714844 77.039062 34.128906 77.042969 35.539062 C 77.042969 36.03125 77.042969 36.519531 77.042969 37.007812 C 77.042969 37.128906 77.042969 37.253906 77.042969 37.378906 C 77.046875 38.746094 77.046875 40.117188 77.050781 41.484375 C 77.050781 41.609375 77.050781 41.734375 77.050781 41.863281 C 77.050781 43.253906 77.054688 44.648438 77.054688 46.039062 C 77.054688 46.101562 77.054688 46.167969 77.054688 46.230469 C 77.054688 46.742188 77.054688 47.25 77.054688 47.757812 C 77.058594 49.925781 77.058594 52.09375 77.0625 54.261719 C 77.066406 55.550781 77.066406 56.839844 77.066406 58.125 C 77.066406 59.003906 77.070312 59.886719 77.070312 60.765625 C 77.074219 61.269531 77.074219 61.773438 77.074219 62.28125 C 77.070312 64.90625 77.113281 67.519531 77.550781 70.117188 C 77.589844 70.382812 77.589844 70.382812 77.589844 70.859375 C 75.109375 70.859375 72.628906 70.859375 70.078125 70.859375 C 70.171875 70.167969 70.265625 69.476562 70.363281 68.765625 C 70.402344 68.410156 70.4375 68.058594 70.46875 67.703125 C 70.476562 67.625 70.484375 67.550781 70.488281 67.472656 C 70.636719 65.8125 70.660156 64.15625 70.660156 62.492188 C 70.660156 62.257812 70.660156 62.019531 70.660156 61.785156 C 70.660156 61.273438 70.660156 60.765625 70.660156 60.253906 C 70.660156 59.496094 70.660156 58.738281 70.660156 57.980469 C 70.664062 56.542969 70.664062 55.109375 70.664062 53.675781 C 70.664062 52.566406 70.664062 51.457031 70.664062 50.351562 C 70.664062 50.03125 70.664062 49.710938 70.664062 49.390625 C 70.664062 49.269531 70.664062 49.269531 70.664062 49.148438 C 70.664062 46.914062 70.664062 44.679688 70.664062 42.441406 C 70.664062 42.316406 70.664062 42.316406 70.664062 42.1875 C 70.664062 41.761719 70.664062 41.332031 70.664062 40.90625 C 70.664062 40.824219 70.664062 40.738281 70.664062 40.652344 C 70.664062 40.480469 70.664062 40.308594 70.664062 40.136719 C 70.664062 37.472656 70.664062 34.8125 70.667969 32.148438 C 70.667969 29.152344 70.667969 26.152344 70.667969 23.15625 C 70.667969 22.835938 70.667969 22.515625 70.667969 22.195312 C 70.667969 22.117188 70.667969 22.039062 70.667969 21.957031 C 70.667969 20.695312 70.667969 19.429688 70.671875 18.167969 C 70.671875 16.894531 70.671875 15.625 70.671875 14.351562 C 70.671875 13.664062 70.671875 12.976562 70.671875 12.289062 C 70.683594 7.398438 70.683594 7.398438 70.207031 2.53125 C 70.15625 2.164062 70.117188 1.796875 70.078125 1.425781 Z M 70.078125 1.425781 "/>
<path style=" stroke:none;fill-rule:nonzero;fill:rgb(80.784315%,61.56863%,45.490196%);fill-opacity:1;" d="M 27.808594 0.261719 C 27.972656 0.261719 27.972656 0.261719 28.140625 0.261719 C 36.296875 0.203125 44.34375 2 50.375 7.851562 C 50.929688 8.402344 51.433594 8.988281 51.914062 9.605469 C 51.988281 9.695312 52.0625 9.785156 52.140625 9.878906 C 54.511719 12.835938 56.21875 16.832031 56.480469 20.640625 C 56.28125 20.839844 55.878906 20.808594 55.605469 20.839844 C 55.523438 20.851562 55.441406 20.863281 55.359375 20.871094 C 55.085938 20.90625 54.816406 20.9375 54.542969 20.972656 C 54.355469 20.996094 54.167969 21.019531 53.980469 21.042969 C 53.582031 21.089844 53.1875 21.140625 52.792969 21.1875 C 52.285156 21.25 51.78125 21.3125 51.273438 21.375 C 50.886719 21.425781 50.496094 21.472656 50.105469 21.519531 C 49.917969 21.542969 49.734375 21.566406 49.546875 21.589844 C 49.285156 21.621094 49.023438 21.65625 48.761719 21.6875 C 48.683594 21.695312 48.609375 21.707031 48.527344 21.714844 C 48.132812 21.761719 47.75 21.789062 47.351562 21.78125 C 47.339844 21.707031 47.328125 21.628906 47.316406 21.554688 C 46.863281 18.609375 46.21875 15.765625 44.785156 13.125 C 44.753906 13.066406 44.722656 13.011719 44.691406 12.953125 C 44.027344 11.703125 43.1875 10.632812 42.21875 9.605469 C 42.144531 9.527344 42.070312 9.449219 41.996094 9.371094 C 38.902344 6.160156 34.28125 4.730469 29.914062 4.640625 C 29.660156 4.640625 29.40625 4.636719 29.148438 4.636719 C 29.082031 4.636719 29.011719 4.636719 28.945312 4.636719 C 24.328125 4.644531 19.265625 5.667969 15.835938 8.980469 C 15.753906 9.0625 15.675781 9.144531 15.59375 9.226562 C 15.523438 9.296875 15.453125 9.367188 15.382812 9.4375 C 13.515625 11.417969 12.757812 14.246094 12.820312 16.917969 C 12.976562 19.585938 13.671875 21.914062 15.59375 23.875 C 15.664062 23.949219 15.738281 24.023438 15.808594 24.101562 C 18.980469 27.210938 24.058594 28.472656 28.265625 29.40625 C 28.429688 29.445312 28.597656 29.480469 28.761719 29.519531 C 29.972656 29.789062 31.1875 30.050781 32.398438 30.3125 C 32.574219 30.351562 32.746094 30.390625 32.921875 30.425781 C 33.097656 30.464844 33.273438 30.503906 33.449219 30.542969 C 33.578125 30.570312 33.578125 30.570312 33.710938 30.597656 C 34.152344 30.691406 34.59375 30.789062 35.035156 30.882812 C 37.914062 31.5 40.800781 32.128906 43.589844 33.085938 C 43.660156 33.109375 43.726562 33.132812 43.800781 33.160156 C 45.636719 33.78125 47.457031 34.472656 49.171875 35.382812 C 49.355469 35.480469 49.542969 35.574219 49.730469 35.667969 C 51.210938 36.414062 52.660156 37.328125 53.914062 38.425781 C 54.003906 38.5 54.09375 38.578125 54.183594 38.65625 C 57.003906 41.101562 58.347656 44.761719 58.648438 48.410156 C 58.972656 53.785156 57.636719 58.886719 54.035156 62.976562 C 53.777344 63.261719 53.511719 63.542969 53.246094 63.820312 C 53.199219 63.867188 53.152344 63.917969 53.105469 63.964844 C 52.464844 64.636719 51.796875 65.25 51.058594 65.816406 C 51.007812 65.855469 50.957031 65.898438 50.90625 65.9375 C 49.453125 67.0625 47.871094 67.988281 46.210938 68.765625 C 46.113281 68.8125 46.113281 68.8125 46.011719 68.859375 C 41.132812 71.148438 35.804688 72.023438 30.449219 72.019531 C 30.34375 72.019531 30.234375 72.019531 30.121094 72.019531 C 28.566406 72.015625 27.027344 71.996094 25.480469 71.808594 C 25.375 71.796875 25.269531 71.785156 25.160156 71.773438 C 19.0625 71.058594 13.003906 69.011719 8.367188 64.867188 C 8.316406 64.820312 8.265625 64.777344 8.214844 64.730469 C 7.882812 64.429688 7.550781 64.128906 7.226562 63.820312 C 7.164062 63.761719 7.101562 63.703125 7.039062 63.644531 C 6.546875 63.171875 6.128906 62.640625 5.703125 62.109375 C 5.59375 61.972656 5.59375 61.972656 5.480469 61.832031 C 2.859375 58.558594 1.453125 54.460938 0.730469 50.378906 C 0.707031 50.25 0.707031 50.25 0.683594 50.121094 C 0.609375 49.667969 0.554688 49.21875 0.519531 48.761719 C 0.511719 48.660156 0.503906 48.558594 0.492188 48.453125 C 0.488281 48.378906 0.480469 48.300781 0.476562 48.222656 C 1.566406 48.085938 2.660156 47.949219 3.75 47.8125 C 4.257812 47.75 4.765625 47.6875 5.273438 47.621094 C 5.761719 47.5625 6.25 47.5 6.742188 47.441406 C 6.925781 47.417969 7.113281 47.394531 7.300781 47.371094 C 7.5625 47.335938 7.824219 47.304688 8.085938 47.273438 C 8.164062 47.261719 8.238281 47.253906 8.316406 47.242188 C 8.75 47.1875 9.167969 47.167969 9.601562 47.175781 C 9.609375 47.238281 9.613281 47.300781 9.621094 47.367188 C 10.171875 53.324219 12.296875 58.964844 16.929688 62.941406 C 20.710938 66.058594 25.476562 67.496094 30.332031 67.625 C 30.40625 67.625 30.480469 67.628906 30.558594 67.632812 C 34.941406 67.734375 39.660156 66.84375 43.261719 64.199219 C 43.359375 64.132812 43.453125 64.066406 43.554688 63.996094 C 45.941406 62.246094 47.832031 59.769531 48.585938 56.878906 C 48.605469 56.8125 48.625 56.75 48.644531 56.683594 C 49.234375 54.570312 49.226562 51.941406 48.585938 49.839844 C 48.566406 49.773438 48.546875 49.703125 48.527344 49.636719 C 47.703125 47.027344 45.964844 45.308594 43.574219 44.035156 C 41.375 42.898438 39.042969 42.09375 36.648438 41.480469 C 36.582031 41.464844 36.519531 41.449219 36.457031 41.433594 C 35.207031 41.113281 33.953125 40.824219 32.695312 40.550781 C 32.320312 40.46875 31.945312 40.382812 31.566406 40.300781 C 30.371094 40.035156 29.175781 39.773438 27.980469 39.515625 C 27.378906 39.382812 26.773438 39.25 26.167969 39.117188 C 25.808594 39.039062 25.445312 38.960938 25.085938 38.882812 C 23.53125 38.546875 21.992188 38.179688 20.464844 37.742188 C 20.394531 37.71875 20.324219 37.699219 20.253906 37.679688 C 15.507812 36.3125 10.757812 34.359375 7.132812 30.910156 C 7.070312 30.855469 7.011719 30.804688 6.949219 30.746094 C 4.539062 28.507812 3.351562 24.890625 3.136719 21.6875 C 3.078125 19.9375 3.050781 18.171875 3.421875 16.453125 C 3.441406 16.371094 3.457031 16.289062 3.476562 16.203125 C 4.074219 13.5625 5.292969 11.191406 7.035156 9.128906 C 7.105469 9.050781 7.171875 8.96875 7.242188 8.886719 C 7.453125 8.644531 7.671875 8.414062 7.890625 8.179688 C 7.96875 8.097656 7.96875 8.097656 8.046875 8.015625 C 13.03125 2.8125 20.71875 0.3125 27.808594 0.261719 Z M 27.808594 0.261719 "/>
<path style=" stroke:none;fill-rule:nonzero;fill:rgb(80.784315%,61.56863%,45.490196%);fill-opacity:1;" d="M 391.078125 1.425781 C 406.074219 1.425781 421.074219 1.425781 436.527344 1.425781 C 436.527344 3.308594 436.527344 5.191406 436.527344 7.132812 C 435.835938 7.039062 435.144531 6.945312 434.433594 6.847656 C 432.269531 6.617188 430.128906 6.546875 427.953125 6.542969 C 427.609375 6.542969 427.269531 6.542969 426.929688 6.539062 C 426.339844 6.539062 425.75 6.535156 425.160156 6.535156 C 424.304688 6.53125 423.453125 6.53125 422.601562 6.527344 C 421.21875 6.523438 419.832031 6.519531 418.449219 6.515625 C 417.105469 6.511719 415.765625 6.507812 414.421875 6.503906 C 414.296875 6.503906 414.296875 6.503906 414.167969 6.503906 C 413.511719 6.5 412.855469 6.5 412.199219 6.496094 C 408.992188 6.484375 405.789062 6.476562 402.582031 6.46875 C 402.550781 14.941406 402.519531 23.417969 402.488281 32.148438 C 406.367188 32.136719 410.25 32.125 414.246094 32.113281 C 415.46875 32.109375 416.691406 32.105469 417.949219 32.101562 C 419.050781 32.097656 419.050781 32.097656 420.15625 32.09375 C 420.644531 32.09375 421.132812 32.089844 421.621094 32.089844 C 425.105469 32.082031 428.394531 31.960938 431.867188 31.480469 C 431.867188 33.554688 431.867188 35.625 431.867188 37.757812 C 430.925781 37.632812 429.984375 37.507812 429.015625 37.378906 C 426.402344 37.128906 423.785156 37.15625 421.160156 37.148438 C 420.570312 37.148438 419.976562 37.148438 419.382812 37.144531 C 417.65625 37.136719 415.925781 37.132812 414.199219 37.128906 C 410.335938 37.117188 406.46875 37.105469 402.488281 37.09375 C 402.519531 46.574219 402.550781 56.050781 402.582031 65.816406 C 407.105469 65.804688 411.628906 65.789062 416.292969 65.777344 C 418.429688 65.769531 418.429688 65.769531 420.609375 65.761719 C 421.894531 65.757812 421.894531 65.757812 423.179688 65.753906 C 423.75 65.753906 424.316406 65.75 424.886719 65.75 C 425.546875 65.75 426.203125 65.746094 426.863281 65.746094 C 427.199219 65.742188 427.535156 65.742188 427.871094 65.742188 C 430.15625 65.734375 432.449219 65.722656 434.726562 65.492188 C 434.910156 65.472656 434.910156 65.472656 435.097656 65.457031 C 435.753906 65.390625 436.394531 65.308594 437.042969 65.1875 C 437.289062 65.152344 437.289062 65.152344 437.761719 65.152344 C 437.761719 67.003906 437.761719 68.855469 437.761719 70.761719 C 422.355469 70.761719 406.949219 70.761719 391.078125 70.761719 C 391.363281 68.765625 391.363281 68.765625 391.503906 67.78125 C 391.640625 66.769531 391.722656 65.753906 391.800781 64.734375 C 391.808594 64.660156 391.8125 64.585938 391.820312 64.507812 C 392.039062 61.722656 392.042969 58.941406 392.042969 56.144531 C 392.042969 55.558594 392.042969 54.96875 392.042969 54.378906 C 392.042969 53.226562 392.042969 52.074219 392.042969 50.921875 C 392.042969 49.984375 392.042969 49.046875 392.042969 48.109375 C 392.042969 47.839844 392.042969 47.566406 392.042969 47.296875 C 392.042969 47.226562 392.042969 47.160156 392.042969 47.089844 C 392.046875 45.195312 392.046875 43.300781 392.046875 41.40625 C 392.046875 41.335938 392.046875 41.265625 392.046875 41.191406 C 392.046875 40.832031 392.046875 40.46875 392.046875 40.109375 C 392.046875 40.039062 392.046875 39.964844 392.046875 39.890625 C 392.046875 39.746094 392.046875 39.601562 392.046875 39.457031 C 392.046875 37.207031 392.046875 34.953125 392.046875 32.703125 C 392.050781 30.164062 392.050781 27.625 392.050781 25.085938 C 392.050781 24.816406 392.050781 24.542969 392.050781 24.273438 C 392.050781 24.203125 392.050781 24.136719 392.050781 24.070312 C 392.050781 23 392.050781 21.933594 392.050781 20.867188 C 392.050781 19.792969 392.050781 18.714844 392.050781 17.636719 C 392.050781 17.058594 392.050781 16.476562 392.050781 15.894531 C 392.054688 12.558594 392.015625 9.21875 391.660156 5.898438 C 391.644531 5.738281 391.628906 5.582031 391.609375 5.425781 C 391.488281 4.273438 391.328125 3.136719 391.105469 2 C 391.078125 1.808594 391.078125 1.808594 391.078125 1.425781 Z M 391.078125 1.425781 "/>
<path style=" stroke:none;fill-rule:nonzero;fill:rgb(80.784315%,61.56863%,45.490196%);fill-opacity:1;" d="M 235.425781 1.425781 C 250.425781 1.425781 265.421875 1.425781 280.875 1.425781 C 280.875 3.308594 280.875 5.191406 280.875 7.132812 C 280.183594 7.039062 279.496094 6.945312 278.785156 6.847656 C 276.617188 6.617188 274.476562 6.546875 272.300781 6.542969 C 271.960938 6.542969 271.617188 6.542969 271.277344 6.539062 C 270.6875 6.539062 270.097656 6.535156 269.507812 6.535156 C 268.65625 6.53125 267.800781 6.53125 266.949219 6.527344 C 265.566406 6.523438 264.183594 6.519531 262.796875 6.515625 C 261.457031 6.511719 260.113281 6.507812 258.769531 6.503906 C 258.644531 6.503906 258.644531 6.503906 258.515625 6.503906 C 257.859375 6.5 257.203125 6.5 256.546875 6.496094 C 253.34375 6.484375 250.136719 6.476562 246.929688 6.46875 C 246.898438 14.941406 246.867188 23.417969 246.835938 32.148438 C 250.648438 32.136719 254.464844 32.128906 258.394531 32.117188 C 260.199219 32.113281 260.199219 32.113281 262.039062 32.109375 C 263.121094 32.109375 263.121094 32.109375 264.203125 32.105469 C 264.683594 32.101562 265.164062 32.101562 265.644531 32.101562 C 266.257812 32.101562 266.871094 32.097656 267.488281 32.09375 C 267.710938 32.09375 267.9375 32.09375 268.160156 32.09375 C 269.339844 32.09375 270.40625 32.046875 271.558594 31.765625 C 271.996094 31.671875 272.4375 31.578125 272.890625 31.480469 C 272.890625 33.554688 272.890625 35.625 272.890625 37.757812 C 271.558594 37.472656 271.558594 37.472656 271.148438 37.367188 C 270.425781 37.195312 269.703125 37.175781 268.960938 37.175781 C 268.867188 37.171875 268.773438 37.171875 268.671875 37.171875 C 268.355469 37.171875 268.039062 37.171875 267.722656 37.167969 C 267.492188 37.167969 267.261719 37.167969 267.027344 37.167969 C 266.410156 37.164062 265.792969 37.160156 265.171875 37.160156 C 264.589844 37.15625 264.011719 37.15625 263.429688 37.152344 C 261.730469 37.148438 260.035156 37.140625 258.335938 37.136719 C 254.539062 37.121094 250.746094 37.109375 246.835938 37.09375 C 246.867188 46.574219 246.898438 56.050781 246.929688 65.816406 C 251.457031 65.804688 255.980469 65.789062 260.640625 65.777344 C 262.777344 65.769531 262.777344 65.769531 264.957031 65.761719 C 266.242188 65.757812 266.242188 65.757812 267.527344 65.753906 C 268.097656 65.753906 268.667969 65.75 269.234375 65.75 C 269.894531 65.75 270.554688 65.746094 271.210938 65.746094 C 271.546875 65.742188 271.882812 65.742188 272.21875 65.742188 C 274.503906 65.734375 276.796875 65.722656 279.070312 65.492188 C 279.253906 65.472656 279.253906 65.472656 279.441406 65.457031 C 280.121094 65.390625 280.792969 65.300781 281.464844 65.1875 C 281.730469 65.152344 281.730469 65.152344 282.207031 65.152344 C 282.207031 67.003906 282.207031 68.855469 282.207031 70.761719 C 266.769531 70.761719 251.332031 70.761719 235.425781 70.761719 C 235.582031 69.695312 235.738281 68.628906 235.902344 67.53125 C 236.308594 63.84375 236.40625 60.1875 236.402344 56.484375 C 236.402344 55.878906 236.402344 55.277344 236.402344 54.675781 C 236.402344 53.566406 236.402344 52.457031 236.402344 51.347656 C 236.402344 50.324219 236.402344 49.296875 236.402344 48.273438 C 236.402344 48.203125 236.402344 48.136719 236.402344 48.066406 C 236.402344 47.789062 236.402344 47.507812 236.402344 47.230469 C 236.402344 44.632812 236.402344 42.03125 236.402344 39.433594 C 236.402344 37.132812 236.402344 34.835938 236.402344 32.535156 C 236.402344 29.941406 236.402344 27.34375 236.402344 24.75 C 236.402344 24.472656 236.402344 24.195312 236.402344 23.917969 C 236.402344 23.847656 236.402344 23.78125 236.402344 23.710938 C 236.402344 22.6875 236.402344 21.664062 236.402344 20.640625 C 236.402344 19.472656 236.402344 18.308594 236.402344 17.144531 C 236.402344 16.550781 236.402344 15.957031 236.402344 15.363281 C 236.40625 12.144531 236.371094 8.929688 236.007812 5.722656 C 235.992188 5.574219 235.976562 5.425781 235.960938 5.277344 C 235.835938 4.140625 235.667969 3.015625 235.453125 1.898438 C 235.425781 1.710938 235.425781 1.710938 235.425781 1.425781 Z M 235.425781 1.425781 "/>
<path style=" stroke:none;fill-rule:nonzero;fill:rgb(80.784315%,61.56863%,45.490196%);fill-opacity:1;" d="M 292.285156 1.425781 C 296.238281 1.425781 300.191406 1.425781 304.265625 1.425781 C 305.359375 4.164062 305.359375 4.164062 305.871094 5.496094 C 306.113281 6.128906 306.355469 6.761719 306.597656 7.390625 C 306.640625 7.503906 306.683594 7.613281 306.726562 7.730469 C 307.203125 8.972656 307.683594 10.21875 308.164062 11.460938 C 308.871094 13.289062 309.574219 15.117188 310.277344 16.949219 C 310.902344 18.574219 311.53125 20.203125 312.160156 21.828125 C 312.863281 23.65625 313.570312 25.484375 314.273438 27.316406 C 314.898438 28.941406 315.523438 30.570312 316.152344 32.195312 C 316.859375 34.023438 317.5625 35.855469 318.265625 37.683594 C 318.890625 39.308594 319.515625 40.9375 320.144531 42.5625 C 320.8125 44.289062 321.476562 46.019531 322.140625 47.746094 C 323.53125 51.363281 324.925781 54.976562 326.324219 58.589844 C 326.578125 58.035156 326.8125 57.476562 327.03125 56.90625 C 327.058594 56.828125 327.089844 56.75 327.121094 56.671875 C 327.21875 56.414062 327.320312 56.15625 327.417969 55.894531 C 327.492188 55.710938 327.5625 55.523438 327.632812 55.339844 C 327.785156 54.945312 327.9375 54.550781 328.089844 54.15625 C 328.28125 53.65625 328.472656 53.15625 328.667969 52.65625 C 329.574219 50.296875 330.480469 47.9375 331.378906 45.574219 C 331.898438 44.214844 332.417969 42.855469 332.941406 41.5 C 332.96875 41.425781 332.996094 41.355469 333.023438 41.277344 C 333.199219 40.824219 333.375 40.367188 333.550781 39.914062 C 333.886719 39.035156 334.226562 38.160156 334.5625 37.285156 C 334.601562 37.179688 334.640625 37.078125 334.683594 36.972656 C 335.316406 35.324219 335.949219 33.671875 336.578125 32.023438 C 337.136719 30.550781 337.699219 29.082031 338.265625 27.613281 C 338.292969 27.539062 338.320312 27.46875 338.347656 27.394531 C 338.523438 26.9375 338.699219 26.480469 338.875 26.027344 C 339.210938 25.152344 339.550781 24.273438 339.886719 23.398438 C 339.925781 23.292969 339.964844 23.191406 340.007812 23.085938 C 340.683594 21.324219 341.355469 19.5625 342.027344 17.804688 C 342.53125 16.488281 343.03125 15.175781 343.539062 13.863281 C 343.707031 13.421875 343.878906 12.980469 344.046875 12.539062 C 344.1875 12.171875 344.328125 11.804688 344.46875 11.441406 C 345.746094 8.15625 346.765625 4.867188 347.527344 1.425781 C 350.195312 1.425781 352.863281 1.425781 355.609375 1.425781 C 355.488281 1.796875 355.378906 2.109375 355.207031 2.453125 C 355.167969 2.539062 355.125 2.621094 355.082031 2.710938 C 355.039062 2.800781 354.992188 2.890625 354.945312 2.984375 C 354.398438 4.121094 353.894531 5.277344 353.402344 6.4375 C 353.3125 6.644531 353.226562 6.847656 353.140625 7.050781 C 352.882812 7.648438 352.632812 8.246094 352.378906 8.84375 C 352.324219 8.972656 352.324219 8.972656 352.269531 9.097656 C 350.820312 12.535156 349.460938 16 348.101562 19.472656 C 347.671875 20.574219 347.238281 21.675781 346.804688 22.777344 C 346.09375 24.585938 345.386719 26.390625 344.675781 28.199219 C 344.011719 29.898438 343.347656 31.59375 342.679688 33.289062 C 342.011719 34.996094 341.339844 36.703125 340.671875 38.40625 C 340.632812 38.507812 340.59375 38.605469 340.554688 38.707031 C 340.28125 39.40625 340.007812 40.105469 339.730469 40.804688 C 339.417969 41.601562 339.105469 42.398438 338.792969 43.199219 C 338.753906 43.296875 338.714844 43.398438 338.675781 43.5 C 338 45.21875 337.328125 46.9375 336.652344 48.652344 C 336.027344 50.246094 335.402344 51.839844 334.777344 53.433594 C 334.738281 53.535156 334.699219 53.632812 334.65625 53.738281 C 334.382812 54.433594 334.109375 55.132812 333.835938 55.832031 C 333.203125 57.449219 332.570312 59.066406 331.933594 60.679688 C 331.894531 60.789062 331.851562 60.898438 331.808594 61.007812 C 330.8125 63.542969 329.816406 66.078125 328.816406 68.613281 C 328.777344 68.710938 328.738281 68.808594 328.695312 68.914062 C 328.585938 69.191406 328.476562 69.464844 328.367188 69.742188 C 328.335938 69.824219 328.304688 69.90625 328.269531 69.992188 C 328.242188 70.066406 328.210938 70.140625 328.179688 70.21875 C 328.15625 70.28125 328.128906 70.347656 328.101562 70.414062 C 328.054688 70.53125 328 70.648438 327.941406 70.761719 C 325.304688 70.761719 322.671875 70.761719 319.953125 70.761719 C 319.648438 70.085938 319.351562 69.417969 319.089844 68.722656 C 319.050781 68.628906 319.015625 68.539062 318.980469 68.445312 C 318.90625 68.246094 318.828125 68.050781 318.753906 67.855469 C 318.550781 67.328125 318.347656 66.804688 318.144531 66.277344 C 318.105469 66.171875 318.066406 66.070312 318.023438 65.960938 C 317.675781 65.058594 317.320312 64.160156 316.964844 63.261719 C 316.851562 62.96875 316.734375 62.679688 316.621094 62.386719 C 316.589844 62.3125 316.5625 62.238281 316.53125 62.160156 C 316.125 61.140625 315.726562 60.117188 315.324219 59.09375 C 315.265625 58.941406 315.265625 58.941406 315.203125 58.785156 C 315 58.261719 314.792969 57.738281 314.589844 57.214844 C 314.195312 56.210938 313.800781 55.203125 313.40625 54.195312 C 313.367188 54.097656 313.328125 53.996094 313.289062 53.894531 C 312.613281 52.175781 311.941406 50.457031 311.265625 48.742188 C 310.605469 47.058594 309.945312 45.375 309.285156 43.691406 C 308.65625 42.09375 308.03125 40.496094 307.402344 38.902344 C 306.734375 37.195312 306.0625 35.488281 305.394531 33.78125 C 305.355469 33.683594 305.316406 33.582031 305.277344 33.480469 C 304.964844 32.683594 304.652344 31.886719 304.339844 31.089844 C 304.066406 30.390625 303.792969 29.691406 303.515625 28.992188 C 303.480469 28.890625 303.441406 28.792969 303.398438 28.691406 C 302.683594 26.859375 301.964844 25.03125 301.246094 23.199219 C 300.820312 22.121094 300.398438 21.042969 299.976562 19.960938 C 297.71875 14.1875 297.71875 14.1875 295.328125 8.464844 C 295.109375 7.949219 294.886719 7.433594 294.667969 6.917969 C 294.054688 5.472656 293.429688 4.035156 292.757812 2.617188 C 292.707031 2.515625 292.660156 2.414062 292.609375 2.308594 C 292.546875 2.175781 292.546875 2.175781 292.484375 2.042969 C 292.382812 1.808594 292.382812 1.808594 292.285156 1.425781 Z M 292.285156 1.425781 "/>
<path style=" stroke:none;fill-rule:nonzero;fill:rgb(80.784315%,61.56863%,45.490196%);fill-opacity:1;" d="M 443.277344 1.425781 C 460.628906 1.425781 477.980469 1.425781 495.859375 1.425781 C 495.859375 3.308594 495.859375 5.191406 495.859375 7.132812 C 494.570312 6.957031 494.570312 6.957031 494.183594 6.898438 C 491.664062 6.5625 489.128906 6.53125 486.59375 6.523438 C 486.175781 6.523438 485.757812 6.519531 485.335938 6.519531 C 484.550781 6.511719 483.761719 6.511719 482.976562 6.507812 C 482.078125 6.503906 481.179688 6.5 480.28125 6.492188 C 478.4375 6.484375 476.59375 6.476562 474.75 6.46875 C 474.753906 11.910156 474.757812 17.351562 474.765625 22.792969 C 474.765625 22.875 474.765625 22.953125 474.765625 23.039062 C 474.769531 24.792969 474.769531 26.546875 474.773438 28.300781 C 474.773438 29.160156 474.773438 30.019531 474.777344 30.878906 C 474.777344 30.964844 474.777344 31.050781 474.777344 31.140625 C 474.777344 33.910156 474.78125 36.675781 474.785156 39.445312 C 474.785156 42.292969 474.789062 45.144531 474.792969 47.992188 C 474.792969 48.394531 474.792969 48.796875 474.792969 49.203125 C 474.792969 49.320312 474.792969 49.320312 474.792969 49.441406 C 474.796875 50.714844 474.796875 51.984375 474.796875 53.257812 C 474.796875 54.539062 474.800781 55.820312 474.800781 57.105469 C 474.804688 57.796875 474.804688 58.492188 474.804688 59.183594 C 474.792969 63.175781 474.792969 63.175781 475.128906 67.148438 C 475.144531 67.242188 475.15625 67.335938 475.167969 67.429688 C 475.230469 67.917969 475.304688 68.402344 475.386719 68.886719 C 475.417969 69.082031 475.449219 69.28125 475.480469 69.480469 C 475.511719 69.652344 475.539062 69.824219 475.566406 69.996094 C 475.605469 70.289062 475.605469 70.289062 475.605469 70.761719 C 471.589844 70.761719 467.574219 70.761719 463.4375 70.761719 C 463.5 70.324219 463.5625 69.882812 463.625 69.433594 C 463.691406 68.972656 463.753906 68.511719 463.816406 68.054688 C 463.832031 67.941406 463.847656 67.828125 463.863281 67.710938 C 464.121094 65.816406 464.222656 63.945312 464.222656 62.03125 C 464.222656 61.789062 464.222656 61.550781 464.222656 61.308594 C 464.226562 60.789062 464.226562 60.269531 464.226562 59.746094 C 464.226562 58.972656 464.226562 58.199219 464.230469 57.425781 C 464.230469 56.125 464.234375 54.820312 464.234375 53.519531 C 464.234375 52.230469 464.238281 50.945312 464.238281 49.65625 C 464.238281 49.574219 464.238281 49.496094 464.238281 49.414062 C 464.238281 49.003906 464.238281 48.597656 464.242188 48.191406 C 464.246094 45.304688 464.25 42.421875 464.25 39.539062 C 464.253906 36.742188 464.257812 33.941406 464.261719 31.140625 C 464.261719 31.054688 464.261719 30.96875 464.261719 30.878906 C 464.261719 30.011719 464.265625 29.144531 464.265625 28.277344 C 464.265625 26.507812 464.269531 24.742188 464.273438 22.972656 C 464.273438 22.890625 464.273438 22.808594 464.273438 22.726562 C 464.28125 17.308594 464.285156 11.886719 464.292969 6.46875 C 462.371094 6.476562 460.453125 6.484375 458.535156 6.496094 C 457.644531 6.5 456.753906 6.503906 455.863281 6.507812 C 455.082031 6.511719 454.304688 6.515625 453.527344 6.519531 C 453.117188 6.523438 452.707031 6.523438 452.292969 6.523438 C 449.695312 6.535156 447.089844 6.570312 444.515625 6.957031 C 443.902344 7.042969 443.902344 7.042969 443.277344 7.132812 C 443.277344 5.25 443.277344 3.367188 443.277344 1.425781 Z M 443.277344 1.425781 "/>
<path style=" stroke:none;fill-rule:nonzero;fill:rgb(80.784315%,61.56863%,45.490196%);fill-opacity:1;" d="M 180.277344 1.425781 C 184.324219 1.425781 188.375 1.425781 192.542969 1.425781 C 192.355469 2.746094 192.167969 4.0625 191.972656 5.421875 C 191.8125 7 191.8125 7 191.757812 8.578125 C 191.757812 8.675781 191.757812 8.777344 191.757812 8.882812 C 191.757812 9.214844 191.757812 9.542969 191.761719 9.875 C 191.761719 10.117188 191.757812 10.359375 191.757812 10.605469 C 191.757812 11.128906 191.757812 11.652344 191.761719 12.175781 C 191.761719 12.953125 191.761719 13.734375 191.761719 14.511719 C 191.761719 15.824219 191.761719 17.132812 191.761719 18.445312 C 191.765625 19.742188 191.765625 21.039062 191.765625 22.335938 C 191.765625 22.417969 191.765625 22.496094 191.765625 22.582031 C 191.765625 22.992188 191.765625 23.402344 191.765625 23.8125 C 191.765625 26.714844 191.765625 29.617188 191.769531 32.519531 C 191.769531 35.339844 191.773438 38.15625 191.773438 40.976562 C 191.773438 41.0625 191.773438 41.152344 191.773438 41.242188 C 191.773438 42.113281 191.773438 42.988281 191.773438 43.859375 C 191.773438 45.640625 191.773438 47.421875 191.773438 49.199219 C 191.773438 49.28125 191.773438 49.363281 191.773438 49.449219 C 191.777344 54.902344 191.78125 60.359375 191.78125 65.816406 C 195.238281 65.808594 198.691406 65.796875 202.144531 65.785156 C 202.554688 65.785156 202.960938 65.785156 203.371094 65.78125 C 203.453125 65.78125 203.535156 65.78125 203.617188 65.78125 C 204.929688 65.777344 206.246094 65.773438 207.558594 65.769531 C 208.910156 65.765625 210.257812 65.761719 211.609375 65.757812 C 212.441406 65.753906 213.273438 65.75 214.101562 65.75 C 214.675781 65.75 215.25 65.746094 215.820312 65.746094 C 216.148438 65.742188 216.476562 65.742188 216.808594 65.742188 C 219.085938 65.734375 221.371094 65.722656 223.640625 65.492188 C 223.828125 65.472656 223.828125 65.472656 224.015625 65.457031 C 224.667969 65.390625 225.3125 65.308594 225.957031 65.1875 C 226.203125 65.152344 226.203125 65.152344 226.679688 65.152344 C 226.679688 67.003906 226.679688 68.855469 226.679688 70.761719 C 211.367188 70.761719 196.054688 70.761719 180.277344 70.761719 C 180.433594 69.757812 180.589844 68.753906 180.753906 67.71875 C 181.101562 65.125 181.082031 62.542969 181.078125 59.929688 C 181.078125 59.238281 181.078125 58.550781 181.078125 57.859375 C 181.082031 56.503906 181.082031 55.152344 181.082031 53.800781 C 181.078125 52.613281 181.078125 51.429688 181.082031 50.246094 C 181.082031 50.085938 181.082031 49.925781 181.082031 49.765625 C 181.082031 49.527344 181.082031 49.285156 181.082031 49.042969 C 181.082031 46.8125 181.082031 44.578125 181.082031 42.34375 C 181.082031 42.261719 181.082031 42.175781 181.082031 42.089844 C 181.082031 41.40625 181.082031 40.726562 181.082031 40.042969 C 181.078125 37.386719 181.082031 34.730469 181.082031 32.070312 C 181.085938 29.078125 181.085938 26.082031 181.085938 23.089844 C 181.085938 22.769531 181.085938 22.449219 181.085938 22.128906 C 181.085938 22.011719 181.085938 22.011719 181.085938 21.890625 C 181.085938 20.707031 181.085938 19.523438 181.085938 18.34375 C 181.089844 16.996094 181.089844 15.648438 181.085938 14.300781 C 181.085938 13.617188 181.085938 12.929688 181.085938 12.246094 C 181.09375 8.539062 180.84375 5.097656 180.277344 1.425781 Z M 180.277344 1.425781 "/>
<path style=" stroke:none;fill-rule:nonzero;fill:rgb(80.784315%,61.56863%,45.490196%);fill-opacity:1;" d="M 364.167969 1.425781 C 368.183594 1.425781 372.203125 1.425781 376.339844 1.425781 C 376.28125 1.960938 376.21875 2.488281 376.136719 3.019531 C 376.117188 3.160156 376.097656 3.300781 376.078125 3.4375 C 376.042969 3.652344 376.011719 3.867188 375.980469 4.078125 C 375.679688 6.085938 375.550781 8.0625 375.554688 10.089844 C 375.554688 10.324219 375.554688 10.558594 375.554688 10.792969 C 375.550781 11.296875 375.550781 11.800781 375.550781 12.308594 C 375.550781 13.058594 375.550781 13.808594 375.550781 14.558594 C 375.550781 15.976562 375.550781 17.398438 375.550781 18.816406 C 375.550781 19.914062 375.550781 21.011719 375.550781 22.105469 C 375.550781 22.265625 375.550781 22.421875 375.550781 22.582031 C 375.550781 22.820312 375.550781 23.058594 375.550781 23.296875 C 375.546875 25.507812 375.546875 27.722656 375.546875 29.933594 C 375.546875 30.058594 375.546875 30.058594 375.546875 30.1875 C 375.546875 30.609375 375.546875 31.03125 375.546875 31.453125 C 375.546875 31.535156 375.546875 31.621094 375.546875 31.707031 C 375.546875 31.875 375.546875 32.042969 375.546875 32.214844 C 375.550781 34.847656 375.546875 37.484375 375.546875 40.117188 C 375.542969 43.085938 375.542969 46.050781 375.542969 49.015625 C 375.542969 49.335938 375.542969 49.652344 375.542969 49.96875 C 375.542969 50.085938 375.542969 50.085938 375.542969 50.203125 C 375.542969 51.378906 375.542969 52.550781 375.542969 53.722656 C 375.542969 55.058594 375.542969 56.394531 375.542969 57.730469 C 375.542969 58.410156 375.542969 59.089844 375.542969 59.769531 C 375.523438 63.613281 375.523438 63.613281 375.863281 67.433594 C 375.882812 67.566406 375.882812 67.566406 375.902344 67.703125 C 375.964844 68.179688 376.039062 68.652344 376.121094 69.121094 C 376.160156 69.378906 376.203125 69.632812 376.246094 69.886719 C 376.261719 69.996094 376.28125 70.101562 376.300781 70.214844 C 376.339844 70.476562 376.339844 70.476562 376.339844 70.761719 C 372.324219 70.761719 368.308594 70.761719 364.167969 70.761719 C 364.277344 69.589844 364.277344 69.589844 364.351562 69.097656 C 364.367188 68.992188 364.382812 68.882812 364.398438 68.773438 C 364.429688 68.554688 364.464844 68.335938 364.496094 68.117188 C 364.761719 66.320312 364.863281 64.558594 364.859375 62.742188 C 364.859375 62.503906 364.859375 62.265625 364.859375 62.027344 C 364.863281 61.511719 364.863281 60.996094 364.863281 60.480469 C 364.863281 59.714844 364.863281 58.949219 364.863281 58.183594 C 364.867188 56.734375 364.867188 55.285156 364.867188 53.835938 C 364.867188 52.714844 364.867188 51.59375 364.867188 50.472656 C 364.867188 50.148438 364.867188 49.828125 364.867188 49.503906 C 364.867188 49.421875 364.867188 49.34375 364.867188 49.257812 C 364.867188 47 364.871094 44.738281 364.871094 42.480469 C 364.871094 42.351562 364.871094 42.351562 364.871094 42.222656 C 364.871094 41.789062 364.871094 41.359375 364.871094 40.925781 C 364.871094 40.84375 364.871094 40.757812 364.871094 40.667969 C 364.871094 40.496094 364.871094 40.320312 364.871094 40.148438 C 364.871094 37.457031 364.871094 34.765625 364.875 32.074219 C 364.875 29.046875 364.878906 26.015625 364.878906 22.988281 C 364.878906 22.664062 364.878906 22.339844 364.878906 22.015625 C 364.878906 21.894531 364.878906 21.894531 364.878906 21.773438 C 364.878906 20.496094 364.878906 19.222656 364.878906 17.945312 C 364.882812 16.660156 364.882812 15.375 364.882812 14.089844 C 364.878906 13.394531 364.878906 12.699219 364.882812 12.003906 C 364.890625 8.730469 364.832031 5.53125 364.21875 2.308594 C 364.167969 1.996094 364.167969 1.996094 364.167969 1.425781 Z M 364.167969 1.425781 "/>
<path style=" stroke:none;fill-rule:nonzero;fill:rgb(80.784315%,61.56863%,45.490196%);fill-opacity:1;" d="M 153.179688 1.425781 C 157.195312 1.425781 161.210938 1.425781 165.351562 1.425781 C 165.242188 2.382812 165.242188 2.382812 165.171875 2.824219 C 165.066406 3.5 164.96875 4.175781 164.875 4.851562 C 164.859375 4.949219 164.847656 5.050781 164.832031 5.152344 C 164.5 7.648438 164.546875 10.160156 164.550781 12.671875 C 164.550781 13.351562 164.550781 14.03125 164.550781 14.710938 C 164.546875 16.042969 164.546875 17.375 164.546875 18.707031 C 164.546875 19.871094 164.546875 21.035156 164.546875 22.203125 C 164.546875 22.359375 164.546875 22.515625 164.546875 22.671875 C 164.546875 22.910156 164.546875 23.148438 164.546875 23.382812 C 164.546875 25.582031 164.546875 27.78125 164.546875 29.980469 C 164.546875 30.0625 164.546875 30.144531 164.546875 30.230469 C 164.546875 30.902344 164.546875 31.574219 164.546875 32.242188 C 164.546875 34.859375 164.546875 37.472656 164.542969 40.085938 C 164.542969 43.035156 164.539062 45.980469 164.542969 48.929688 C 164.542969 49.242188 164.542969 49.558594 164.542969 49.875 C 164.542969 49.949219 164.542969 50.027344 164.542969 50.109375 C 164.542969 51.273438 164.542969 52.433594 164.539062 53.597656 C 164.539062 54.925781 164.539062 56.25 164.539062 57.574219 C 164.542969 58.25 164.542969 58.925781 164.539062 59.597656 C 164.53125 63.203125 164.636719 66.746094 165.320312 70.296875 C 165.351562 70.476562 165.351562 70.476562 165.351562 70.761719 C 161.332031 70.761719 157.316406 70.761719 153.179688 70.761719 C 153.238281 70.167969 153.300781 69.578125 153.382812 68.988281 C 153.40625 68.835938 153.425781 68.679688 153.445312 68.527344 C 153.480469 68.292969 153.511719 68.058594 153.542969 67.824219 C 153.578125 67.59375 153.609375 67.363281 153.640625 67.132812 C 153.648438 67.0625 153.660156 66.996094 153.667969 66.925781 C 153.792969 66.023438 153.859375 65.128906 153.855469 64.21875 C 153.859375 64.121094 153.859375 64.023438 153.859375 63.921875 C 153.859375 63.589844 153.859375 63.261719 153.859375 62.933594 C 153.859375 62.695312 153.859375 62.457031 153.859375 62.21875 C 153.859375 61.632812 153.859375 61.046875 153.859375 60.460938 C 153.863281 59.757812 153.863281 59.054688 153.863281 58.351562 C 153.863281 56.65625 153.867188 54.957031 153.867188 53.257812 C 153.867188 52.453125 153.867188 51.648438 153.867188 50.84375 C 153.871094 48.085938 153.871094 45.328125 153.871094 42.570312 C 153.871094 42.398438 153.871094 42.222656 153.871094 42.050781 C 153.871094 41.964844 153.871094 41.878906 153.871094 41.789062 C 153.871094 41.355469 153.871094 40.921875 153.871094 40.488281 C 153.871094 40.402344 153.871094 40.3125 153.871094 40.226562 C 153.875 37.433594 153.875 34.640625 153.878906 31.847656 C 153.882812 28.890625 153.882812 25.933594 153.882812 22.976562 C 153.882812 22.652344 153.882812 22.328125 153.882812 22 C 153.882812 21.921875 153.882812 21.839844 153.882812 21.757812 C 153.882812 20.476562 153.886719 19.195312 153.886719 17.910156 C 153.890625 16.617188 153.890625 15.324219 153.890625 14.03125 C 153.890625 13.332031 153.890625 12.636719 153.890625 11.9375 C 153.898438 8.769531 153.867188 5.667969 153.269531 2.546875 C 153.199219 2.160156 153.179688 1.828125 153.179688 1.425781 Z M 153.179688 1.425781 "/>
</g>
</svg>
